<svg width="78" height="35" viewBox="0 0 78 35" fill="none" xmlns="http://www.w3.org/2000/svg">
<path d="M6.2209 11.7361C7.8209 6.13611 11.5542 3.40278 13.2209 2.73611C17.2209 1.23614 19.2209 1.23611 30.2209 2.73611C41.2209 4.23611 45.2209 2.73611 46.2209 2.73611C47.2209 2.73611 55.7209 0.236111 63.2209 1.23611C70.7209 2.23611 72.2209 10.7361 72.7209 21.7361C73.2209 32.7361 66.2209 33.7361 66.7209 33.7361H62.2209L58.2209 32.2361H46.2209V22.7361L39.2209 16.2361L31.7209 22.7361V32.2361H25.7209C21.2209 32.2361 21.7209 32.7361 16.2209 33.7361C10.7209 34.7361 7.7209 30.7361 7.2209 29.2361C6.7209 27.7361 4.2209 18.7361 6.2209 11.7361Z" fill="white"/>
<path d="M75.7209 10.2361H73.7209L74.7209 14.2361V24.7361H75.7209L77.2209 23.2361V11.7361L75.7209 10.2361Z" fill="white"/>
<path d="M1.22086 11.7361C1.62086 10.9361 3.72086 10.4028 4.72086 10.2361V10.7361L4.22089 15.2361V24.7361H2.72089L1.22086 23.2361C1.05419 19.7361 0.820861 12.5361 1.22086 11.7361Z" fill="white"/>
<path d="M6.2209 11.7361C7.8209 6.13611 11.5542 3.40278 13.2209 2.73611C17.2209 1.23614 19.2209 1.23611 30.2209 2.73611C41.2209 4.23611 45.2209 2.73611 46.2209 2.73611C47.2209 2.73611 55.7209 0.236111 63.2209 1.23611C70.7209 2.23611 72.2209 10.7361 72.7209 21.7361C73.2209 32.7361 66.2209 33.7361 66.7209 33.7361H62.2209L58.2209 32.2361H46.2209V22.7361L39.2209 16.2361L31.7209 22.7361V32.2361H25.7209C21.2209 32.2361 21.7209 32.7361 16.2209 33.7361C10.7209 34.7361 7.7209 30.7361 7.2209 29.2361C6.7209 27.7361 4.2209 18.7361 6.2209 11.7361Z" stroke="white"/>
<path d="M75.7209 10.2361H73.7209L74.7209 14.2361V24.7361H75.7209L77.2209 23.2361V11.7361L75.7209 10.2361Z" stroke="white"/>
<path d="M1.22086 11.7361C1.62086 10.9361 3.72086 10.4028 4.72086 10.2361V10.7361L4.22089 15.2361V24.7361H2.72089L1.22086 23.2361C1.05419 19.7361 0.820861 12.5361 1.22086 11.7361Z" stroke="white"/>
<circle cx="37" cy="26" r="1" fill="white"/>
<circle cx="37" cy="29" r="1" fill="white"/>
<circle cx="41" cy="29" r="1" fill="white"/>
<circle cx="41" cy="26" r="1" fill="white"/>
</svg>
